<mxfile host="app.diagrams.net" agent="Mozilla/5.0 (X11; Linux x86_64) AppleWebKit/537.36 (KHTML, like Gecko) Chrome/136.0.0.0 Safari/537.36" version="27.2.0">
  <diagram name="第 1 页" id="SAa0V_dGnNZgj1_m1_-2">
    <mxGraphModel dx="348" dy="196" grid="1" gridSize="10" guides="1" tooltips="1" connect="1" arrows="1" fold="1" page="1" pageScale="1" pageWidth="827" pageHeight="1169" math="0" shadow="0">
      <root>
        <mxCell id="0" />
        <mxCell id="1" parent="0" />
        <mxCell id="xBVjhFJFjN-JBsFsi6ET-2" value="" style="verticalLabelPosition=bottom;verticalAlign=top;html=1;shape=mxgraph.basic.orthogonal_triangle;fillColor=none;" vertex="1" parent="1">
          <mxGeometry x="600" y="241" width="119" height="119" as="geometry" />
        </mxCell>
        <mxCell id="BlKJdgy9hVPK1SEFYLWn-2" value="" style="ellipse;whiteSpace=wrap;html=1;aspect=fixed;" parent="1" vertex="1">
          <mxGeometry x="598" y="238" width="4" height="4" as="geometry" />
        </mxCell>
        <mxCell id="BlKJdgy9hVPK1SEFYLWn-34" value="" style="ellipse;whiteSpace=wrap;html=1;aspect=fixed;" parent="1" vertex="1">
          <mxGeometry x="598" y="358" width="4" height="4" as="geometry" />
        </mxCell>
        <mxCell id="xBVjhFJFjN-JBsFsi6ET-3" value="" style="ellipse;whiteSpace=wrap;html=1;aspect=fixed;" vertex="1" parent="1">
          <mxGeometry x="718" y="358" width="4" height="4" as="geometry" />
        </mxCell>
        <mxCell id="xBVjhFJFjN-JBsFsi6ET-4" value="" style="ellipse;whiteSpace=wrap;html=1;aspect=fixed;" vertex="1" parent="1">
          <mxGeometry x="598" y="318" width="4" height="4" as="geometry" />
        </mxCell>
        <mxCell id="xBVjhFJFjN-JBsFsi6ET-5" value="" style="ellipse;whiteSpace=wrap;html=1;aspect=fixed;" vertex="1" parent="1">
          <mxGeometry x="678" y="318" width="4" height="4" as="geometry" />
        </mxCell>
        <mxCell id="xBVjhFJFjN-JBsFsi6ET-6" value="" style="ellipse;whiteSpace=wrap;html=1;aspect=fixed;" vertex="1" parent="1">
          <mxGeometry x="677" y="358" width="4" height="4" as="geometry" />
        </mxCell>
        <mxCell id="xBVjhFJFjN-JBsFsi6ET-7" value="" style="ellipse;whiteSpace=wrap;html=1;aspect=fixed;" vertex="1" parent="1">
          <mxGeometry x="598" y="278" width="4" height="4" as="geometry" />
        </mxCell>
        <mxCell id="xBVjhFJFjN-JBsFsi6ET-8" value="" style="ellipse;whiteSpace=wrap;html=1;aspect=fixed;" vertex="1" parent="1">
          <mxGeometry x="637" y="278" width="4" height="4" as="geometry" />
        </mxCell>
        <mxCell id="xBVjhFJFjN-JBsFsi6ET-9" value="" style="ellipse;whiteSpace=wrap;html=1;aspect=fixed;" vertex="1" parent="1">
          <mxGeometry x="638" y="358" width="4" height="4" as="geometry" />
        </mxCell>
        <mxCell id="xBVjhFJFjN-JBsFsi6ET-10" value="" style="ellipse;whiteSpace=wrap;html=1;aspect=fixed;" vertex="1" parent="1">
          <mxGeometry x="638" y="318" width="4" height="4" as="geometry" />
        </mxCell>
      </root>
    </mxGraphModel>
  </diagram>
</mxfile>
